<?xml version="1.0" encoding="iso-8859-1"?>
<!-- Uploaded to: SVG Repo, www.svgrepo.com, Generator: SVG Repo Mixer Tools -->
<svg fill="#000000" height="800px" width="800px" version="1.1" id="Layer_1" xmlns="http://www.w3.org/2000/svg" xmlns:xlink="http://www.w3.org/1999/xlink" 
	 viewBox="0 0 511.999 511.999" xml:space="preserve">
<g>
	<g>
		<path d="M376.752,55.958l-6.784-38.218c-1.489-8.388-7.769-14.705-15.521-16.678C352.377,0.381,350.174,0,347.878,0H167.704
			c-0.29,0-0.573,0.032-0.86,0.043C156.413-0.49,146.972,6.79,145.099,17.34l-6.584,37.085
			c-19.779,8.402-33.683,28.022-33.683,50.831v351.546c0,30.438,24.761,55.197,55.197,55.197H351.97
			c30.436,0,55.197-24.761,55.197-55.197V105.257C407.167,83.728,394.772,65.054,376.752,55.958z M256.357,355.956
			c-41.987,0-76.146-34.16-76.146-76.146s34.158-76.144,76.146-76.144s76.146,34.158,76.146,76.144S298.344,355.956,256.357,355.956
			z"/>
	</g>
</g>
</svg>