<svg width="134" height="108" viewBox="0 0 134 108" fill="none" xmlns="http://www.w3.org/2000/svg">
<circle cx="58" cy="58" r="50" fill="#222428"/>
<path d="M25.0526 78.7411C24.6081 79.1856 24.3615 79.592 24.3615 80.1717C24.3615 81.1815 25.1799 82 26.1904 82C26.7694 82 27.2081 81.7324 27.6195 81.3088C40.7972 68.1122 72.3612 34 72.3612 34C72.3612 34 38.2497 65.5639 25.0526 78.7411Z" fill="white"/>
<path d="M39.9536 74.5379C39.5509 74.9406 39.3271 75.3082 39.3271 75.8339C39.3271 76.7488 40.0687 77.4904 40.9828 77.4904C41.5086 77.4904 41.907 77.248 42.2789 76.8646C54.2188 64.9072 82.8174 34 82.8174 34C82.8174 34 51.9101 62.5985 39.9536 74.5379Z" fill="white"/>
<path d="M59.4418 65.9782C59.1231 66.2953 58.9469 66.5859 58.9469 67.0002C58.9469 67.7216 59.5324 68.3071 60.2537 68.3071C60.6673 68.3071 60.9831 68.115 61.2758 67.813C70.6941 58.3808 93.2534 34 93.2534 34C93.2534 34 68.8737 56.5597 59.4418 65.9782Z" fill="white"/>
<path d="M23.561 70.2634C23.2007 70.6237 23 70.9524 23 71.4228C23 72.2413 23.6638 72.9052 24.4823 72.9052C24.952 72.9052 25.308 72.6873 25.641 72.3442C36.3215 61.6483 61.9044 34 61.9044 34C61.9044 34 34.2567 59.5827 23.561 70.2634Z" fill="white"/>
<circle cx="6" cy="92" r="6" fill="#9926F7"/>
<circle cx="92" cy="6" r="6" fill="#9926F7"/>
<circle cx="119" cy="20" r="15" fill="#9926F7"/>
</svg>
